<svg xmlns="http://www.w3.org/2000/svg" width="20" height="16" viewBox="0 0 20 16">
  <defs>
    <style>
      .cls-1 {
        fill: #fff;
        fill-rule: evenodd;
      }
    </style>
  </defs>
  <path id="menu" class="cls-1" d="M271.7,38H288.3a1.7,1.7,0,0,1,1.7,1.7v0.015a1.7,1.7,0,0,1-1.7,1.7H271.7a1.7,1.7,0,0,1-1.7-1.7V39.7A1.7,1.7,0,0,1,271.7,38Zm0,12.594H288.3a1.7,1.7,0,0,1,1.7,1.7V52.3a1.7,1.7,0,0,1-1.7,1.7H271.7a1.7,1.7,0,0,1-1.7-1.7V52.289A1.7,1.7,0,0,1,271.7,50.594Zm-0.009-6.281h16.625a1.688,1.688,0,1,1,0,3.375H271.687A1.688,1.688,0,0,1,271.687,44.312Z" transform="translate(-270 -38)"/>
</svg>
