<svg xmlns="http://www.w3.org/2000/svg" width="12" height="21.938" viewBox="0 0 12 21.938">
  <defs>
    <style>
      .cls-1 {
        fill: #fff;
        fill-rule: evenodd;
      }
    </style>
  </defs>
  <path id="round" class="cls-1" d="M30.276,46.249L39.622,36.3a1.1,1.1,0,0,1,1.609.152l0.35,0.373a1.282,1.282,0,0,1,.143,1.713l-9.346,9.949a1.1,1.1,0,0,1-1.61-.152l-0.35-.373A1.282,1.282,0,0,1,30.276,46.249Zm0.051,1.593L39.59,57.7a1.094,1.094,0,0,0,1.6-.15l0.347-.37a1.27,1.27,0,0,0,.141-1.7L32.41,45.623a1.094,1.094,0,0,0-1.6.15l-0.347.37A1.271,1.271,0,0,0,30.326,47.841Z" transform="translate(-30 -36.031)"/>
</svg>
